<?xml version="1.0" encoding="utf-8"?>
<!-- Generator: Adobe Illustrator 22.1.0, SVG Export Plug-In . SVG Version: 6.00 Build 0)  -->
<svg version="1.1" id="Layer_1" xmlns="http://www.w3.org/2000/svg" xmlns:xlink="http://www.w3.org/1999/xlink" x="0px" y="0px"
	 viewBox="0 0 644 643.4" style="enable-background:new 0 0 644 643.4;" xml:space="preserve">
<style type="text/css">
	.st0{fill:none;stroke:#485B4A;stroke-width:3;stroke-miterlimit:10;}
	.st1{fill:none;stroke:#485B4A;stroke-miterlimit:10;}
	.st2{fill:#485B4A;}
	.st3{fill:none;stroke:#485B49;stroke-width:9;stroke-miterlimit:10;}
	.st4{fill:#485B49;}
</style>
<title>Lotus</title>
<path class="st0" d="M-196,238.8c0-36.2-37-65.6-82.7-65.6c-12,0-23.9,2.1-35.1,6.2c-18.1,6.7-38.1,6.7-56.2,0
	c-11.3-4.1-23.2-6.2-35.1-6.2c-45.7,0-82.7,29.4-82.7,65.6c0,16.4,7.6,31.4,20.2,43c3.1,2.8,4.8,6.8,4.8,11v149.6
	c0,8.3,6.7,15,15,15h213.6c8.3,0,15-6.7,15-15V291.1c0-4,1.6-7.9,4.5-10.7C-203.1,269.1-196,254.6-196,238.8z"/>
<path class="st1" d="M-223,344.7c3.1,38.4-95.1,17.8-88.2,67.3c11.9,86-177.3-11.3-142.2-57.1c27.8-36.3-11.1-96.8,3-140.3
	c14.1-43.5,88.6,22.9,123.7-6.4c36.6-30.6,129.9,14.1,82.5,51C-270.9,280-224.5,325.9-223,344.7z"/>
<path class="st2" d="M-253.2,275.5c-39-2.4-46.1-87.2-80.4-68.6s-45.6,78.9-84.1,85.1c-48.7,7.8,11.5,179.1,54.6,118.8
	c24.8-34.7,73.6,35.7,94.2,10c10.1-12.5,8.3-68.2,36.9-65.4C-181.1,360.4-212.6,278-253.2,275.5z M-358.8,380.7
	c-21,0-38.1-17.1-38.1-38.1s17.1-38.1,38.1-38.1s38.1,17.1,38.1,38.1l0,0C-320.7,363.6-337.8,380.7-358.8,380.7z"/>
<circle class="st3" cx="321.8" cy="321.7" r="321.7"/>
<g>
	<g>
		<path class="st4" d="M359.4,273.3c-9.5,9.3-15.3,21.6-16.6,34.8c-1.1,11.2,2.5,27,16.2,28c5.4,0.4,10.9-1.9,14.5-6
			c1.7-2,2.9-4.4,3.5-7c0.6-2.7-0.3-5.7,2.7-7c5.6-2.3,9.5,5.6,10.6,9.8c2,7.4,2.3,15.3,3.2,22.8c1.9,15.6,3.5,31.3,5.7,46.8
			c1.7,12,5.1,24.6,15.5,31.9c10.1,7.1,25.5,8.7,36.8,3.5c12-5.6,16.9-19.1,15.6-31.7c-0.9-9-4.3-17.3-7.4-25.7
			c-3-8.3-5.5-16.7-7.6-25.3c-2.1-8.5-4-17.2-4.9-25.9c-0.4-3.9-0.6-8.1,0.8-11.9c1-2.7,4.2-7.4,7.7-5.7c1-3.7,2-7.4,3-11.1
			c-6.8-0.3-12.3,5.6-12.1,12.3c0.2,6.9,6.3,12.5,12.5,14.4c12.9,3.7,26.3-5.8,24.5-19.6c-2-14.9-15.1-27.9-28.1-34.1
			c-14.5-6.9-31.7-9.4-47.7-9c-9.5,0.2-19.4,1.2-28.7,3.2c-8.6,1.8-15.3,6.2-20.5,13.2c-4.6,6.2,5.8,12.1,10.3,6
			c3.7-5,9.2-7,15.2-8.1c6.6-1.2,13.4-1.9,20.2-2.3c13-0.8,26.6,0.7,39,4.8c11.6,3.8,22.1,11.5,27.2,22.9c1.8,4.2,2.9,9.4-2.3,11.3
			c-1.8,0.7-3.9,0.8-5.8,0.2c-1.3-0.4-4.3-3.3-3.6-3.2c5.7,0.3,8.4-8.6,3-11.1c-12.6-5.9-24,4.3-26.2,16.6c-1.2,7,0,14,1.1,20.9
			c1.2,7.5,2.8,14.9,4.7,22.2c1.7,6.7,3.7,13.3,6,19.9c2.7,7.6,6,15.1,7.5,23.1c2.3,12.2-2.8,24.2-16.4,24.9
			c-5.9,0.3-12.9-1.1-17.6-4.8c-4.4-3.4-6.7-8.9-8.1-14.1c-3.6-13.4-4.1-28-5.8-41.8c-0.9-7.1-1.7-14.2-2.6-21.3
			c-0.9-7.4-1.3-15-4.2-22c-4.2-9.9-15-17.6-25.7-12.6c-2.8,1.3-5.2,3.3-6.8,6c-1.9,3.1-1,6.6-2.3,9.7c-2.3,5.6-8.2,2.8-9.8-1.6
			c-4.6-12.8,3.5-29,12.4-37.8C373.3,276.3,364.9,267.9,359.4,273.3L359.4,273.3z"/>
	</g>
</g>
<g>
	<g>
		<path class="st4" d="M90.2,294.6c20.1-10.3,36.4-26.1,54.1-39.8c17.8-13.7,36.8-25.8,56.7-36.3c9.5-5,19.3-10.1,29.4-13.9
			c4.5-1.7,9.5-3.5,14.4-3.5c4.1,0.1,7.1,1.3,9.3,4c3.8,4.6,4.3,11.7,1.8,18.1c-3.3,8.5-11,15.4-18.5,20.1c-8.2,5-19,8.2-27.5,6.3
			c-8.3-1.9-15.7-7.2-18.2-14.8c-5.8,4.5-11.7,9-17.5,13.4c9.2,5.4,16.5,14.2,19.9,24.2c2.1,6,2.8,10.3,2.7,16.3
			c-0.1,4-0.3,10.2-3.3,13.6c-2.3,2.6-7.5,2.4-12.2,2.2c-7.3-0.2-14.6-0.8-21.8-1.7c-13.3-1.6-27.6-5-38.5-13.3
			c-9.6-7.3-17.5-19.9-15.8-31c1-6.4-1.6-12.8-8.3-14.6c-5.9-1.6-13.4,2-14.6,8.3c-5.9,29.2,21.1,56.2,50.3,49
			c12.5-3.1,23.8-12.5,36.2-13.7c10.6-1.1,21.6,2.2,26.7,10.9c4.5,7.7,4.2,17.1-2.9,22.3c-9,6.6-21.3,6.9-32.6,7.1
			c-12.6,0.3-26.2-0.7-36.6-8.5c-10.2-7.7-16.3-20.3-21.2-31.7c-2.1-4.8-5-10.9-4.1-16.3c0.2-1.4,0.4-1.4,0.9-2.5
			c0-0.1,1.1-1.5,0.4-0.6c-0.8,1,0.8-0.7,1-0.9c1.1-0.8,0,0-0.2,0.1c0.5-0.3,1-0.6,1.5-0.9c1.2-0.6,0-0.1-0.2,0
			c0.7-0.3,1.5-0.5,2.2-0.7c0.6-0.2,3.4-0.6,1.5-0.4c1.2-0.1,2.4-0.1,3.6-0.1c2.1,0-0.4-0.3,1.7,0.2c1.6,0.3,3.2,0.7,4.7,1.4
			c-1.5-0.6,1.1,0.7,1.5,0.9c0.9,0.5,1.8,1.2,2.6,1.8c2.2,1.8,4.2,4,5.9,6.2c9,11.9,14.5,27,20.9,40.3c6.6,13.8,12.4,28.8,20.8,41.7
			c8,12.2,19.9,21,34.5,23.6c14,2.4,28.3,0.7,41.5-4.4c14.9-5.8,28.1-14.5,42-22.2c5-2.8,11.2-7,17.2-7c4.6,0,9.1,4,11.1,6.8
			c6.2,8.5,6.7,19,3.4,28.8c-3.3,9.6-13,18-23.2,22.1c-4,1.6-10.3,3.4-14.3,3.5c-0.5,0-4.3-0.2-2.5,0c-0.8-0.1-1.4,0.2-1.6-0.5
			c0,0.1,1.6,2,1.4,1.7c0.1,0.2,0.8,3.6,0.7,3.5c0.2,0.2,1.3-1.1,1.7-1.5c8.5-7.9,21-12.7,31.5-9.2c4.5,1.5,7.9,4.5,10.2,8.6
			c2.4-5.8,4.7-11.7,7.1-17.5c-7.9,2.5-17.7,0.1-22.9-7.3c-2-2.8-3.8-5-0.2-6.7c4.3-2,9-1.6,13.5-0.3c12.1,3.6,21.2,13.1,29.6,22
			c9,9.5,18.3,19.5,30.1,25.4c6.6,3.3,14.4,6.2,22,5.6c9.2-0.7,15.8-6.8,18.8-15.3c4-11.3,0.4-23.9-5-34.1
			c-4.7-8.9-11.2-16.7-16.3-25.4c-1.2-2-2.3-4-3.2-6.2c0.7,1.7-0.2-0.8-0.4-1.3c-0.4-1.4-0.8-2.8-1.1-4.2c0.4,2,0-0.3,0-1.1
			c0-1.1,0-2.2,0.1-3.3c-0.3,2.1,0.3-0.8,0.5-1.5c0.5-1.4,0.2-1,1.3-2.6c4.4-6.5,14.1-8.9,22-5.4c10.6,4.7,16.4,15.1,18.9,26.4
			c1.4,6.5,1.5,13.2,1.1,19.8c-0.2,4.1-1.3,9.9-3.2,14.2c-0.3,0.8-2.5,4.6-2.9,5.1c0.2-0.2-1.4,1.5-1.9,2c-1,0.9-0.1,0.2,0.1,0
			c-0.6,0.5-1.3,0.9-2,1.2c-1.7,0.9,0.4,0.1-1.5,0.5c1.7-0.3-1.1,0.1-1.7,0.1c-1.3,0-1.9-0.3-3.4-1.4c-1.1-0.8-0.1-0.1,0.1,0.1
			c-0.5-0.4-0.9-0.8-1.3-1.2c-0.5-0.5-2-2.2-1.9-2.1c-0.8-1-3-5.1-3.5-6.4c-1.5-3.6-3.1-10.3-3.5-13.9c-0.6-5.7-1.1-11.9,1.1-17.2
			c1.1-2.6,1.9-3.5,3.3-4.8c1-0.9,0.3-0.3,0-0.2c0.5-0.4,1.1-0.7,1.6-1c0.5-0.3,1.1-0.6,1.7-0.9c3.3-1.7-0.7,0.1,1.3-0.5
			c4.5-1.5,8.3-1.6,12.4-0.5c4.1,1.1,8,3.6,11.5,7.5c7.8,8.7,9.6,21.3,9,32.8c-0.4,7.5-2.1,14.9-4,22.1c-1.6,6.1-3.2,13-5.5,18.6
			c-2.1,5-4.6,8.6-9.8,10.5c-6.2,2.2-13.2,3.1-19.7,4c-6.4,0.8-13.1,1.3-19.4-0.4c-6.3-1.7-11.4-6.1-17.1-9.1
			c-13.8-7.4-29-6.6-41,3.9c-11.6,10.2-14.3,26.3-7.8,40c5.8,12,19.1,20.4,31.9,22.9c16.6,3.2,32.9-0.6,49.5-1.6
			c15.3-0.9,30.7-0.4,45.8,2c7.6,1.2,15.2,2.9,22.7,4.9c3.6,1,7.2,2,10.7,3.2c0.3,0.1,2.1,0.6,2.1,0.8c0-0.1-0.5-0.4-0.4-0.6
			c0.1-0.5-0.5-2.9-0.5-3.6c-0.1-2.1,1-1-0.6-0.3c-0.8,0.4-1.7,1.1-2.6,1.5c-3.3,1.6-7.2,2.5-10.8,3.2c-6,1.2-12.6,1.2-18.6,0.1
			c-4.4-0.8-11.5-2.2-14-5.5c-2.9-3.9-2.3-10.9-2.1-15.6c0.4-10.9,3.6-22.5,8.6-32.5c10.9-21.8,29-39.2,50-51.3
			c6.5-3.7,13.5-7,17.4-13.7c4.1-7.1,3.5-16.1,3.8-24.1c0.3-8.1,0.6-16.2,0.8-24.3c0.3-8.9-1.6-17.7-10.1-22.3
			c-11.3-6-28-1.5-39.1,3c-12.4,5-23.7,12.3-32.9,22.2c-8.6,9.3-17,21.8-19.4,34.5c-3.4,18.3,12.8,28.3,28.4,32
			c14.1,3.3,28.6,1.8,41.8-3.9c12.4-5.4,21.7-15.2,29.2-26.2c7.1-10.4,12.5-21.9,19.8-32.1c7.3-10.3,19.2-17.2,27.2-27.3
			c9.4-11.7,13.9-28.7,5.2-42.1c-3.4-5.3-10.7-7.8-16.3-4.3c-11.2,7.1-16.5,18.7-20,31.1c-1.5,5.5-2.8,11.1-4.7,16.5
			c-0.3,0.8-0.5,1.5-0.8,2.2c0.1-0.2,0.6-1.4,0.1-0.1c-0.6,1.2-1.2,2.5-1.9,3.6c-0.6,1-1.2,2-1.9,2.9c1.3-1.7-2,1.7-2,1.9
			c0-0.4,6.8,1.7,6.9,1.8c0.2,0.4,0.5,0.8,0.7,1.2c0.7,1.4,0.9,1.6,0.6,0.6c-0.4,0,0.1-1-0.1,0.2c0.1-0.7,0-1.6,0-2.4
			c0-4.5,0.3-9,0.5-13.4c0.5-9,1.3-17.9,2.4-26.8c2-15.7,9.4-35.1,1.2-50c-8.6-15.8-29.5-16.9-43.4-7.8
			c-12.8,8.4-26.8,23.8-25.9,40.1c1,18.5,15.2,29.9,29.3,39.7c5.4,3.8,10.7,7.9,14.5,13.5c3.9,5.7,6.7,11.9,8.8,18.4
			c5.7,17.6,8.8,36.5,10.7,54.9c0.4,3.9,0.7,7.9,0.7,11.8c0,3.8-0.1,6.1-0.7,8.9c-0.7,3.3-1.4,5.4-2.5,7.2c-1.1,1.9-0.2,0.8-1.8,2.3
			c-1,0.9-0.1,0.2,0.1,0.1c-1,0.8-2.2,1.3-3.3,1.8c4.8,0.6,9.6,1.2,14.4,1.9c-8.5-7.9-9.4-21.2-12.3-32.9
			c-3.2-13.1-10.3-26.8-22.3-33.8c-6.9-4-14.4-4.9-22.2-3.6c-1.9,0.3-7.1,1.1-7.3,1.5c-1.3,1.6-0.1-1,0,0.1c0,0,3.3,2.7,3.3,2.7
			c0.6,0.2-0.3,1.6,0.2,0.1c0.2-0.7,0-2,0.1-2.7c0.8-16.1,0.3-31.9-1.9-47.8c-2.2-15.7-5.8-31.2-11.1-46.2
			c-5.1-14.3-11-30-20.1-42.3c-4.8-6.5-11-11.6-19.1-13.1c-8.2-1.5-16.7,0.5-24.4,3.3c-13.2,4.8-25.2,12.1-35.5,21.6
			c-11.1,10.3-19.8,23-25.7,36.9c-2.9,6.9-5.1,13.9-6.3,21.3c-0.6,4-0.8,8.1-1.4,12.1c0.3-1.8-0.8,2.4-0.9,2.9
			c0.2-1.1,0.4-0.1,0-0.2c-0.6,0.9-0.3,0.7,0.8-0.6c1.5-1.9,3.7-2.5,6.4-1.7c2.8,2.8,5.5,5.5,8.3,8.3c-5.8-19.3,4.1-39.1,2.8-58.6
			c-1.2-16.6-7.9-34.9-24.1-42.2c-4.2-1.9-8.3-2.6-12.7-3.4c-1.1-0.2-4-1.2-4-1.2c0.1,0,0.8,0.7,0.6,0.8c-0.3,0.2-0.2-1.6-0.1-0.2
			c-0.1-2.4,0.7-5.7,1.5-7.7c2.1-4.8,5-9.4,7.9-13.6c4.4-6.3,10.7-14.5,17.9-17.7c1.2-0.5,1.5-0.7,2.9-0.7c-0.9,0,0.6,0.5,0.9,0.8
			c0.6,0.5,1.4,1.7,1.9,2.6c0.7,1.5,1.1,4,1.1,6c0.5,12.2-1.9,24.8-3,36.9c-1.3,12.9-2.5,25.9-3.8,38.8c-0.8,8.4,8.2,12.7,15.1,11.5
			c11.9-2.2,19.3-12.3,23.2-23c3.7-10.1,2.7-20.2,5.9-29.9c1-3.1,2.5-5.5,5.2-6.5c3.1-1.2,7.5-0.4,11.2,1
			c12.1,4.8,20.6,16.9,33.3,20.4c17.6,4.8,26.9-14.6,23.1-29.1c-3.5-13.2-14.4-22.8-25-30.5c-10.2-7.4-21.8-13-33.8-16.8
			c-5.3-1.7-10.7-2.9-16.1-3.7c-7.3-1.1-15.3-2.4-22.6-0.3c-14.6,4.3-21.6,22.9-25.4,36.1c-4.3,14.7-4.7,29.8-2.5,44.9
			c1.1,7.7,11.5,10.7,17.5,7.1c23.4-14,26.7-46.2,21.1-70.4c-5.5-24-20.8-45-40.7-59.2c-18.5-13.2-44.7-20.6-66.8-12.2
			c-12.9,4.9-22.3,14.4-26.9,27.4c-4.3,12.3-4.3,29.4,2.3,40.9c7.8,13.4,25.8,14.4,34.7,1.7c7.7-11,5-25.9-5.7-33.7
			c-10.8-7.9-25.8-6.8-37.9-2.6c-12.7,4.5-23.6,12-32,22.5c-7.1,8.9-12.6,18.8-18.4,28.6c-5.1,8.7-10.7,17.3-17.7,22.3
			c-3.2,2.3-7.6,5.2-11.7,4.8c-3.8-0.3-6.5-4-7.4-7.8c-1.2-5.1,0-10.5,2-15.2c2-4.6,4.6-8.4,7.4-11.4c13.1-14.4,33.4-20.2,52.8-20
			c24.4,0.2,49.5,11.8,72.3,23.3c13.2,6.7,26.3,14.5,40.2,19.6c13.7,5,30.3,3.1,37.9-10.8c12.6-23-7.8-57.7-31.8-63.5
			c-14.4-3.5-28.3,3.4-35.6,16c-7.5,13.2-6,27.9-7.1,42.4c-1.7,24.1-20.9,43.4-38.9,58.1c-19.3,15.8-41,29.1-57.1,48.5
			c-8.5,10.3-16.8,22.5-19.4,35.8c-1.6,8.2-0.8,16.3,3.2,23.7c1.2,2.3,2.8,4.4,4.1,6.7c1.1,2,1.8,4.3,1.6,5
			c-2,10.9-13.7,16.5-22.8,21.5c-12,6.5-22.4,14.1-29.3,26.1c-5.7,10-8.9,23.2-18,30.4c-4.5,3.5-9.8,6-14.4,9.4
			c-6.7,4.9-12.5,11.4-14.8,19.5c-4.1,14.5,4.8,27.3,18.2,32.5c12.2,4.7,25.6,2.4,37.2-2.8c6.1-2.7,11.7-6.5,16.7-11
			c3.8-3.4,7.9-8.6,10.9-11.5c1.4-1.4,1.5-0.6,0.7-0.5c0.6,0,2.4,0.4,3.2,0.6c3.1,0.9,6.1,2.2,9.3,2.8c6.4,1.3,13.2,0.8,19.3-1.5
			c12.1-4.5,22.2-14.7,24.6-27.7c1.2-6.3-1.7-12.8-8.3-14.6c-5.8-1.6-13.5,2-14.6,8.3c-0.8,4.3-1.8,6.5-5.3,9.3
			c-2,1.6-6.2,3.1-8.5,3.1c-2.9,0-8.7-2.6-13.2-3.5c-8.4-1.7-16,0.4-22.6,5.7c-8,6.5-12.8,15-22.7,19.2c-4.5,1.9-8.3,2.8-12.3,2.7
			c-3.8,0-5.9-0.7-9.4-2.9c1.5,0.9-0.3-1.6,0.3,0.2c-0.2-0.7-0.4-1.6-0.3-0.2c0-1-0.5-1.3-0.2-2.1c2.2-5.2,7.9-8,12.5-10.8
			c10.5-6.5,18.3-14.3,23.9-25.4c4.7-9.3,8-19.9,16-26.6c8.4-7.1,19.4-10.7,28.2-17.2c10.2-7.6,18.5-18.4,19.6-31.4
			c0.6-6.7-1.4-13-4.7-18.8c-2.4-4.1-5.5-7.1-4.9-12.1c1.1-10.1,8.8-20.3,15.3-27.7c7.2-8.2,15.5-15.4,24-22.2
			c18.1-14.4,37.6-27.1,52.8-44.7c7.8-9,14.2-18.7,18.7-29.7c4.9-12.1,5.5-24.5,5.9-37.4c0.1-5.1,0.4-10.2,2.2-15
			c0.4-1.2,1.9-3.8,2.8-4.9c1.1-1.4,2.4-2.1,3.6-2.5c2.2-0.8,1.9-0.6,3.6-0.2c2.4,0.6,2.6,0.8,4.7,2.1c3.4,2.1,6.6,5.8,8.9,9.6
			c2,3.3,3.9,8.4,4.2,11.3c0.2,2.3,0.2,3.7-0.1,4.8c-0.3,1.3-0.3,1.8-1.2,2.1c-2.3,0.8-6.4-0.2-9.9-1.5c-5.6-2.1-11.1-5.2-16.4-7.9
			c-41.7-21.2-86.8-46-134.9-31.3c-19.5,6-38,18.3-47.4,36.9c-5.8,11.5-9,25.5-4.4,37.9c4.6,12.5,15.8,22.3,29.5,22.5
			c23.2,0.3,39.3-20.9,49.9-38.9c10.1-17,18.2-34.7,38.5-41c4.1-1.3,8.5-2.1,11.5-1.6c2.2,0.4,2.8,0.4,4.5,1.8
			c-1.5-1.2,0.2-0.1-0.1,0.2c-0.1-0.3-0.3-0.6-0.4-0.9c0.3,1.4,0.3,1.4,0-0.1c0,0.4,0,0.7,0,1.1c0.2-1.4,0.2-1.4-0.1,0
			c-0.1,0.2-0.1,0.3-0.2,0.5c-0.3,0.8-0.2,0.7,0.2-0.5c-0.2,0.3-0.3,0.6-0.5,0.9c0.9-1.1,0.9-1.1-0.1-0.2c0.9-0.7,1.5-1.2,2.7-1.4
			c0.8-0.1,1.7,0.3,2.4,0.1c1.5-0.3,0.2,2.3,0.2-0.6c0-0.1,1.1,3.7-0.2-1c-0.5-1.8-0.6-2.4-0.7-4c-0.5-4.8-0.4-9.6,0.9-14.2
			c1.4-4.8,3.1-7.4,6.6-10.4c-1.5,1.2,1.7-1.1,1.6-1.1c1.1-0.7,2.2-1.3,3.3-1.8c-0.5,0.2-1.7,0.6,0.6-0.2c1.2-0.4,2.4-0.8,3.7-1.1
			c4.1-1,7.4-1.2,12.5-0.9c3.3,0.2,7.7,1,12.1,2.4c4.6,1.4,8.1,3.1,12.9,5.9c8.1,4.8,15.2,11,21.3,18.7
			c11.5,14.4,18.2,34.4,15.6,51.9c-1.3,8.8-4.2,17.5-11.3,21.8c5.8,2.4,11.7,4.7,17.5,7.1c-1.4-9.3-0.7-19,1.4-28.1
			c1.1-4.5,2.4-8.9,4.3-13.1c1.1-2.4,3.5-9.5,6.2-10.7c2.6-1.1,8.1,0.3,10.9,0.8c5.2,0.8,10.3,2.1,15.3,3.7c9.3,3,18,7.5,26,13.2
			c5.5,3.9,14.3,10.4,15.5,17c0.6,3.1-2.1,3.3,3,1.3c5.3-2.2,3.1-0.4,1.4-2.2c-0.6-0.7-2.3-1.4-3-1.8c-4.7-3-9-6.5-13.6-9.7
			c-17.7-12.2-43.9-16-56.7,5.1c-2.8,4.6-4.5,10.1-5.5,15.4c-0.6,3.2-1,6.4-1.4,9.7c-0.1,1-0.2,1.9-0.3,2.9c0-0.1-0.6,4.1-0.3,2.2
			c-0.4,2.2-0.8,4.3-1.5,6.4c-0.8,2.5-0.6,2.2-1.8,4.4c-1.2,2.2-0.7,1.8-2.5,3.4c1.3-1.2-0.4,0.3-0.9,0.6c-0.7,0.4-0.7,0.4,0.1,0
			c-0.8,0.2-1.6,0.4-2.4,0.5c5,3.8,10,7.7,15.1,11.5c1.3-12.9,2.5-25.9,3.8-38.8c1.2-12.3,3.7-25.3,3-37.7
			c-0.7-12.1-6-24.4-17.5-29.8c-12.9-5.9-25.5,0.2-35.2,8.9c-8.6,7.7-16,17.2-21.6,27.3c-5.2,9.4-9.6,20.9-6.3,31.7
			c1.7,5.7,5.6,10.5,10.7,13.5c5.2,3.1,11,3.1,16.7,4.7c2.1,0.6,1.3,0.3,0.6,0.1c1.1,0.5,2.2,1.1,3.1,1.8c-1.3-0.9,2,1.9,2.4,2.5
			c1.4,1.6,3.1,5.1,4.1,8.4c1.4,5,1.7,7.2,1.8,12.4c0,5.5-0.8,10.9-1.7,16.3c-2.4,14.9-4.8,29.9-0.4,44.7c1.1,3.7,4.3,7.7,8.3,8.3
			c8.4,1.4,15.7-1.5,19.9-9.1c3.4-6,3.6-13.4,4.4-19.5c1.5-11.5,6-22.6,12.6-32.7c6.2-9.5,14.9-18.1,24.5-24.1
			c5.1-3.2,9.9-5.6,15.1-7.4c2.7-0.9,5.6-2,8.4-2.4c2.7-0.4,4.8,0.1,6,1.1c3.7,3.3,6.9,10.6,9.5,15.8c3.2,6.5,6,13.1,8.5,19.9
			c5.3,14.6,9.2,29.9,11.3,45.3c2,14.9,1.9,29.8,1.3,44.8c-0.3,8.2,2.5,16.4,10,20.6c7.7,4.3,15.3,1.4,23.3,0.2
			c0.8-0.1,2.5,0,3.4,0.4c2.7,1.3,4,2.5,6.1,5.3c3.3,4.3,5.3,10.2,6.7,16.4c3.5,15.1,6.1,31,18.1,42c4.2,3.9,9.4,4.2,14.4,1.9
			c13.6-6.5,18.7-21.4,19.7-35.5c1.3-16.2-2.2-33.3-5.1-49.1c-2.9-15.8-6.5-31.7-13.9-46.1c-3.6-7.1-8.5-13.9-14.3-19.3
			c-6-5.5-12.9-9.7-19.4-14.6c-4.5-3.4-10-8.4-11-14c-1-5.3,3.3-10,7-13.9c3.7-3.9,9.1-8.8,13.3-9c1.9-0.1,3,0.1,3.4,0.4
			c1.5,1.3,1.5,3,1.5,5.4c-0.1,7.2-2.2,15-3.3,22.4c-1.4,9.3-2.5,18.6-3.3,28c-1.2,14.3-6.5,40.6,12.4,45.6
			c18.1,4.7,29-18.1,33-31.7c1.8-6.2,3.2-12.6,5.4-18.8c0.8-2.3,1.1-2.8,2.9-6c0.7-1.1,2.9-3.3,4-4c-5.4-1.4-10.9-2.8-16.3-4.3
			c2.5,3.8,1.5,8-1.2,12.6c-3.5,5.8-9.5,10.2-14.6,14.5c-10.8,9.3-18.6,20.5-25.7,32.7c-6.3,10.8-12,22.2-21.8,29.9
			c-8.7,6.8-21.3,9.4-31.6,7.2c-2.8-0.6-6-1.4-8.4-2.5c-0.7-0.3-6.1-4.1-4.8-1.7c0.6,1.1,0.4-0.9,0.8-2.2c0.3-1.1,0.9-2.7,1.2-3.4
			c1.1-2.5,2.7-5.6,4.3-8.1c6.3-10.1,15.3-18.1,26.1-23.6c4.8-2.4,10.3-4.3,16.1-5.4c3-0.6,4.2-0.7,7.4-0.8c0.6,0,1.8-0.5,0.7-0.1
			c1.4-0.5,1.3,1.7,0.2-0.4c-0.1-0.2-3-3.1-2.3-3.6c-0.2,0.1,0,2.9,0,3.3c-0.2,8.7-0.6,17.5-0.9,26.2c-0.1,1.9-0.1,3.9-0.2,5.8
			c-0.1,1.7,0.5,4.7-0.3,6.1c-0.2,0.3-2.6,1.8-3.7,2.4c-24.2,13.4-45.6,31.7-59.9,55.6c-7,11.7-12.2,24.8-14.3,38.2
			c-2.3,14.4-3.5,32,6.2,44.1c10,12.5,30.4,15.7,45.4,14.8c14.8-0.9,36.9-5.7,42-22.1c2.8-9-1.3-17.9-9.1-22.8
			c-6.5-4.1-15.2-5.8-22.6-7.7c-16.3-4.1-33.1-6.5-49.9-7.1c-17.1-0.6-33.6,2.1-50.6,3.1c-6.7,0.4-14.2,0.3-20.2-2.1
			c-4.7-1.9-9.1-5.3-11.1-9.6c-1.3-2.7-1-6.4,1.3-9.3c1.3-1.7,3.3-3.2,4.3-3.7c1.2-0.5,2.7-0.9,4-1.1c-0.7,0.1,1.1,0.2,1.3,0.2
			c6.4,1.1,11.7,6.2,17.4,9.2c7.7,4,16,6,24.8,6.2c8.4,0.2,16.8-1.2,25-2.7c7.3-1.3,14.6-2.8,21.1-6.5c14.2-8.1,18.6-24.5,22.6-39.2
			c8.2-30.2,9.8-67-18.1-87.7c-10.8-8-25.8-10.5-38.7-6.6c-15.5,4.8-25.1,17.6-27,33.5c-3,24.1,7.9,62,37.3,63
			c14.1,0.5,25.6-9.7,31.1-22c5.8-13.1,7.1-27.7,5.3-41.9c-1.9-15.7-7.7-31.2-19.8-41.8c-11.3-9.9-26.1-15.1-41-11.6
			c-13.7,3.2-26.4,14.3-29.3,28.4c-2.4,12.1,1.2,23.6,7.4,34c5.4,9.2,12.3,17.4,17,27c1,2.1,0.4,0.8,0.2,0.3
			c0.2,0.5,0.4,1.1,0.6,1.6c0.4,1.1,0.7,2.1,1,3.2c0.2,0.7,0.6,4,0.4,1.7c0.1,1.3,0.1,2.6,0.1,3.9c0,1.4,0.1-0.1,0.1-0.3
			c0-0.2-0.6,2.7-0.6,2.6c-0.1-0.1,0.7-0.8,0.8-0.9c2.3-0.3,1.1-0.4,0.1-0.7c-1.9-0.6-3.9-1-5.7-1.8c-11-4.6-19.8-15.2-28.1-23.9
			c-10.5-11.1-22.3-21.1-37-26c-14.6-4.9-34.1-2.5-43.3,11.2c-10,14.8,0.8,33.3,13.4,42.3c10.8,7.7,25.4,10.3,38.1,6.2
			c7.5-2.4,10.9-10.6,7.1-17.5c-8.1-14.9-25.7-23.1-42.3-21.5c-9.2,0.9-18.1,4-25.9,8.9c-7.6,4.7-16.3,11.3-18.7,20.3
			c-2.5,9.3,2.4,18.7,11,22.7c8,3.7,16.5,3,24.9,1.3c15.2-3.2,30-11.6,39.8-23.9c10.6-13.4,14.7-30,11.5-46.9
			c-3-15.8-14.9-31.8-31.1-35.6c-18.8-4.4-36.5,8.8-51.9,17.7c-13.4,7.8-27.8,15.8-43.3,16.1c-6.5,0.1-12.6-0.8-18.1-3.9
			c-6-3.4-9.8-9.1-13.1-15.3c-8.9-16.7-16.6-34.2-24.8-51.3c-7.3-15.2-14.9-31.1-29.6-40.5c-12.1-7.7-29.5-8.5-41.6-0.5
			c-7.8,5.2-12.4,13.3-13.4,22.5c-1,9.7,2.5,18.9,6.3,27.7c6.3,14.8,14.3,29.5,27.1,39.7c14.5,11.4,32.5,14.7,50.6,14.5
			c15.3-0.2,32.6-1.3,45.8-10c14.5-9.6,20.8-26,16.9-42.9c-3.7-16.3-16.8-28.8-32.7-33.2c-17.2-4.8-33.6-0.1-49.1,7.5
			c-5.9,2.9-12.5,6.6-19.2,5.7c1.5,0.2-2.2-0.7-2.6-0.8c-0.4-0.1-1.2-0.5-2.5-1.3c-2.1-1.2-4.4-3.3-5.5-4.7
			c-2.1-2.6-2.7-4.1-3.5-6.7c-0.8-2.6-0.9-4.7-0.5-6.7c-7.7-2.1-15.3-4.2-23-6.3c-2.8,18.9,3.9,36.6,17.4,50
			c13.5,13.5,32.1,20.2,50.7,23.1c9.8,1.5,19.7,2.5,29.6,2.9c8.6,0.4,17.9-0.4,25.4-5.1c16.1-10.2,17.3-33.4,13.7-50.3
			c-4-18.8-16.2-35.6-32.8-45.2c-8.6-5-20.8,3.4-17.5,13.4c8.5,26.1,37.4,37.7,62.9,30.6c24.3-6.8,49.8-29.4,49.7-56.4
			c-0.1-12.7-6-25.5-16.8-32.5c-12.4-8.1-28.1-6-41.2-0.8c-25.5,9.9-50,23.7-72.6,39.1c-12.8,8.7-25,18.3-37,28.1
			c-11.2,9.2-22.5,18.2-35.5,24.9c-5.7,2.9-7.4,11-4.3,16.3C77.3,296.2,84.4,297.6,90.2,294.6L90.2,294.6z"/>
	</g>
</g>
<g>
	<g>
		<path class="st4" d="M286.1,567.4c3.6-20.1-2-40-13.9-56.6c-11.9-16.7-28.5-31.4-49.5-33.8c-10.1-1.2-20.1,0.8-30.2,1.1
			c-8.1,0.3-15.2-0.8-20.3-5.8c-5-4.8-7.4-10.8-6.7-17.5c0.9-8.7,6.2-16.6,11-23.7c13.1-19.1,29-39.1,22.3-63.8
			c-4-14.8-27-8.5-23,6.3c4.7,17.3-12,33.8-20.8,46.9c-11.3,16.8-17.9,36.7-8.8,56c8.8,18.7,28.3,26.4,48,25.3
			c9.1-0.5,18.7-2.6,27.8-1.1c8,1.3,14.8,6.4,20.5,11.9c12.8,12.2,23.8,30.5,20.6,48.4c-1.1,6.3,1.7,12.8,8.3,14.6
			C277.2,577.3,285,573.8,286.1,567.4L286.1,567.4z"/>
	</g>
</g>
<g>
	<g>
		<path class="st4" d="M459.9,209.2c-1-5,4.6-8.1,8.7-8.7c5.1-0.8,12.1,0,16.4,3c7.9,5.6,6.9,21.4,5.8,29.7
			c-1.4,10.8-9.4,18.5-19,22.8c-5.7,2.6-12,3.9-18.2,4.9c-3,0.5-5.9,0.9-8.9,1.2c-1.2,0.1-2.7-0.1-3.9,0.2c-2.9,0.7,0.6-2.1-2,1.2
			c4.7-5.9-3.7-14.4-8.4-8.4c-4,5-3.7,11.8,1.4,16c5.6,4.6,13.2,3,19.8,2.1c14.7-2,29.8-5.9,40.5-16.9
			c10.5-10.8,11.9-25.3,10.6-39.7c-1.3-14.4-8.4-25.2-23.4-27.6c-7.9-1.3-16.6-1-23.3,3.9c-6.3,4.6-9.2,11.8-7.7,19.4
			C450,219.8,461.5,216.7,459.9,209.2L459.9,209.2z"/>
	</g>
</g>
<g>
	<g>
		<path class="st4" d="M353.4,155.9c7.2-7.6,19.5-8.5,29.4-8.8c11.3-0.3,22.6,1.6,33.1,5.7c18.5,7.3,33.7,22.5,40,41.4
			c2.4,7.2,13.9,4.1,11.5-3.2c-7.7-23.1-25.8-40.9-48.3-49.7c-12.2-4.8-25.7-6.7-38.8-6c-12.4,0.6-26.3,2.7-35.2,12.2
			C339.7,153.1,348.1,161.5,353.4,155.9L353.4,155.9z"/>
	</g>
</g>
<g>
	<g>
		<path class="st4" d="M504.3,223.3c13.7-16.7,15.5-39.8,7.6-59.6c-8.5-21.1-25.8-37.4-44.3-49.9c-42-28.3-92.3-33-141.6-32.9
			c-14.5,0-29.2,0.3-43.7,1.7c-12.9,1.2-25.6,3.9-36.7,11c-2,1.3-3.7,4.3-2.7,6.7c2,4.9,4,9.7,6,14.6c2.9,7,14.4,3.9,11.5-3.2
			c-2-4.9-4-9.7-6-14.6c-0.9,2.2-1.8,4.5-2.7,6.7c18.2-11.7,42.6-10.6,63.4-11c24.3-0.5,49-0.1,73.1,3.4c20.6,3,40.7,9.2,59,19
			c17.6,9.4,34.8,22.1,46.2,38.7c12,17.6,17.2,42.9,2.6,60.8C491.1,220.8,499.5,229.3,504.3,223.3L504.3,223.3z"/>
	</g>
</g>
<g>
	<g>
		<path class="st4" d="M482.9,137.7c10.6-1.1,23-3.3,31.6-10c3.5-2.8,6.3-6.6,6.5-11.3c0.3-6.3-5.3-9.2-10-12.2
			c-9.8-6.2-21-10.4-31.6-15c-11.2-4.9-22.3-9.9-33.5-14.5c-11.6-4.8-23.1-7.4-35.5-8.9c-12.5-1.5-24.7-3.7-36.6-8
			c-4.9-1.8-9.5-3.9-14.8-4.3c-6-0.5-12.2,1.1-18.1,2.2c-12.5,2.2-25.2,3.9-37.8,5.2c-7.1,0.7-14.2,1.2-21.3,1.6
			c-6,0.3-12.3,0.1-17.6,3.4c-9.2,5.7-10,18-9.4,27.7c0.5,7.6,12.4,7.7,11.9,0c-0.3-5-1.3-13.9,3.5-17.4c3-2.2,8.1-1.6,11.6-1.8
			c4.8-0.2,9.7-0.6,14.5-1c18.8-1.5,37.2-4.9,55.9-7.6c8.8-1.3,16.3,3.1,24.5,5.7c8.5,2.7,17.2,4.4,26,5.5c9.5,1.2,18.9,2,28.1,4.9
			c8.5,2.7,16.7,6.5,24.9,10c9.7,4.2,19.4,8.5,29.1,12.7c9,3.9,18.2,7.9,25.9,14.1c-0.6-1.4-1.2-2.8-1.7-4.2
			c0.5,4.5-6.2,6.5-9.6,7.7c-5.4,1.9-10.9,3.1-16.6,3.7C475.3,126.6,475.3,138.5,482.9,137.7L482.9,137.7z"/>
	</g>
</g>
<g>
	<g>
		<path class="st4" d="M472.9,92.7c6.8-3.4,13.6-6.8,20.4-10.2c1.8-0.9,3-3.2,2.9-5.1c-0.4-15.7-14.2-25.2-27.2-30.9
			c-15.8-6.9-32.6-10.5-49.5-13.3c-18.3-3-36.7-6-55.1-7.5c-16.7-1.4-35.6-2.8-51.5,3.7c-16.2,6.6-27.5,20.3-37.4,34.2
			c-4.4,6.3,5.9,12.2,10.3,6c9.6-13.6,21.3-27.4,38.2-31.3c9.6-2.2,19.9-1.9,29.6-1.4c10.6,0.5,21.1,1.6,31.6,3
			c19.6,2.7,39.5,5.3,58.7,10.4c9.1,2.4,18.3,5.5,26.6,10.1c6.4,3.6,13.6,8.9,13.8,16.9c1-1.7,2-3.4,2.9-5.1
			c-6.8,3.4-13.6,6.8-20.4,10.2C460.1,85.8,466.1,96.1,472.9,92.7L472.9,92.7z"/>
	</g>
</g>
<g>
	<g>
		<path class="st4" d="M482.3,66.8c-8.9-0.9-16.3-7.6-25.1-9.4c-9.8-2-20.1-1.8-30.1-2.2c-21.6-1-43.3-2-64.9-3
			c-7.7-0.4-7.6,11.5,0,11.9c21.6,1,43.3,2,64.9,3c9.6,0.4,20.1-0.2,29.4,2.4c9,2.5,16.2,8.3,25.8,9.2
			C489.9,79.4,489.9,67.5,482.3,66.8L482.3,66.8z"/>
	</g>
</g>
<g>
	<g>
		<path class="st4" d="M499.8,135.8c8.4,0,16.8-0.3,25.2,0c6.3,0.2,12.4,2.2,15.1,8.4c1.1,2.5,2.2,7.3,0.6,9.9
			c-1.3,2.1-4.7,2.5-7.1,3.1c-7.6,1.8-15.6,1.7-23.2,0.2c-7.5-1.5-10.7,10-3.2,11.5c10.9,2.2,22.2,2.1,33-1.1
			c4.6-1.4,8.7-3.3,10.9-7.8c2.1-4.4,2.4-9.6,1.6-14.3c-1.6-9.5-8.5-17.2-17.6-20.2c-5-1.7-10.4-1.5-15.6-1.5c-6.6,0-13.3,0-19.9,0
			C492.1,123.9,492.1,135.8,499.8,135.8L499.8,135.8z"/>
	</g>
</g>
<g>
	<g>
		<path class="st4" d="M46.3,218.9c-1.4,15-18.3,21.6-30.3,26.3c-3.3,1.3-4.7,3.8-4.2,7.3c1.8,12.3,13.9,21.3,26.2,19.2
			c5.7-1,10.9-4.1,14.5-8.5c1.8-2.3,3-4.8,4-7.5c1-3,0.8-5.2,4.3-5.5c7.3-0.7,14.8,0.2,21.8,2.1c6.7,1.9,12.9,5.8,19.8,7.1
			c13.6,2.6,24.4-6.8,33-16c3.2-3.4,1.6-8.5-2.6-9.9c-13.3-4.7-27-7.7-40.9-9.2c-11.2-1.2-27.4,0.4-33.4-11.6
			c-3.1,2.4-6.2,4.8-9.3,7.2c14.7,15.1,38.1,21.2,58.2,14.6c23.5-7.7,33.6-30.1,41.8-51.4c2.8-7.2-8.7-10.2-11.5-3.2
			c-6.6,17-14.6,36.9-33.5,43.1c-16.2,5.3-34.8,0.6-46.6-11.6c-4.9-5-12.3,1.3-9.3,7.2c6.5,13.1,21.4,15.8,34.6,16.8
			c16.1,1.2,31.6,4.2,46.9,9.6c-0.9-3.3-1.8-6.6-2.6-9.9c-3.7,4-7.5,8-12.3,10.7c-5.5,3.1-10.4,2.4-16,0
			c-11.2-4.6-22.2-7.8-34.4-7.5c-5.1,0.1-10.6,0.3-14.4,4.2c-3.5,3.6-3.4,8.5-6,12.5c-6.2,9.9-19.1,4.7-20.6-5.5
			c-1.4,2.4-2.8,4.9-4.2,7.3c17.9-6.9,37-16.4,39.1-37.8C58.9,211.3,47,211.4,46.3,218.9L46.3,218.9z"/>
	</g>
</g>
<g>
	<g>
		<path class="st4" d="M166.9,76.4c-8.9,3-18-2-26.6-4.3c-10-2.7-19-1.7-27.8,3.9c-2.1,1.3-4.2,3.3-6.5,4.2c-2.7,1-3.8-0.3-6.4-1.5
			C94.2,76,88.4,74.4,82.3,74c-4.4-0.3-9.4,0-13.3,2.3c-5.1,2.9-6.5,7.9-7.3,13.3c-2.3,14.9-21.4,18.5-29.9,29.3
			c-6.5,8.3-6.8,18.8-2.9,28.4c3.6,8.8,14.1,17.2,10.5,27.5c-1.8,5.1-5.6,9.5-8.7,13.9c-3.4,4.7-6.3,9.6-8.3,15.1
			c-4.3,11.7-4.3,24.9-0.4,36.7c2.4,7.2,13.9,4.1,11.5-3.2c-3.3-9.9-3.3-20.5,0.4-30.3c3.4-9,10.8-15.7,15-24.3
			c4.4-8.9,4.1-17.7-0.8-26.3c-4.7-8.1-13.6-17.4-8.7-27.5c3-6.2,10.1-9.7,15.6-13.3c5.7-3.7,11.7-7.8,15.2-13.8
			c2-3.4,2.6-6.9,3.3-10.8c0.4-2.3,0.3-4,2.7-4.9c2.3-0.8,5.5-0.4,7.9-0.1c5.5,0.7,9.7,3.3,14.6,5.5c5.3,2.5,9.9,0.9,14.7-2
			c4.2-2.6,8.4-6.2,13.4-7.1c4.7-0.8,9.5,0.7,13.9,2c9.6,3,19.4,6.7,29.5,3.3C177.3,85.4,174.2,73.9,166.9,76.4L166.9,76.4z"/>
	</g>
</g>
<g>
	<g>
		<path class="st4" d="M73.5,178.6c-0.4,2.4-0.5,4.5-0.4,6.9c0.1,1.2,1,4.8,0,5.8c0,0-4.1-0.8-4.6-0.8c-1.5,0-3,0.1-4.4,0.6
			c-3.4,1.2-5.7,3.9-7,7.1c-0.9,2.2-1,5.7-2.7,7.4c-2,2-5.8,2.4-8,4.3c-3,2.5-4.3,5.7-4.8,9.5c-1,7.6-4.6,13-12.7,14.2
			c-7.6,1.1-4.3,12.6,3.2,11.5c7.9-1.2,15-6.4,18.5-13.5c1-1.9,1.7-3.9,2.1-6c0.3-1.8,0-4.5,1-6c1.6-2.6,6.9-3.3,9.2-5.6
			c2.6-2.6,3.6-6,4.6-9.4c0.2-0.5,0.3-1.8,0.7-2.2c0.7-0.7,0.2,0,0.3,0c1.9-0.5,4.6,0.7,6.7,0.4c4.2-0.6,7.3-3.3,8.9-7.1
			c2-4.7,0.2-9.1,0.9-13.9C86.1,174.2,74.6,171,73.5,178.6L73.5,178.6z"/>
	</g>
</g>
<g>
	<g>
		<path class="st4" d="M77,174.1c-0.1-14.4,1.6-28.5,5.3-42.3c-1.9,1.5-3.8,2.9-5.7,4.4c11-1,22.1-2,33.1-3
			c10.5-0.9,21.1-1.8,30.5-6.9c7.9-4.2,14.4-10.8,18.8-18.6c3.8-6.6,6.5-14.9,14-18.2c7-3,1-13.3-6-10.3c-7,3-11.2,9.3-14.7,15.8
			c-4.1,7.6-8,14.6-15.4,19.4c-8.5,5.4-18.4,6-28.2,6.9c-10.7,1-21.5,1.9-32.2,2.9c-2.6,0.2-5,1.7-5.7,4.4
			c-4,14.9-5.9,30.1-5.8,45.5C65.1,181.8,77,181.8,77,174.1L77,174.1z"/>
	</g>
</g>
<g>
	<g>
		<path class="st4" d="M80.6,180.2c5.5-3.5,8.9-8.6,11.5-14.4c2.2-5,4-11.8,8.3-15.4c6.8-5.7,16.5,2.2,22.6,5.4
			c7.3,3.9,15.3,6.1,23.4,3.5c7.2-2.3,13.3-7.5,17.4-13.9c2-3.2,3.6-6.8,4.5-10.5c0.9-3.9,0.5-8.1,1.5-12c1.9-7.3,10.9-5.9,16.6-4.8
			c10.1,1.9,20.1,4.3,30.1,6.4c7.5,1.6,10.7-9.9,3.2-11.5c-8.3-1.8-16.7-3.6-25-5.3c-6.1-1.3-12.4-2.8-18.6-2.1
			c-5.8,0.6-11.3,2.7-14.8,7.6c-4.1,5.7-3,12.2-4.5,18.6c-1.3,5.8-5,11.2-10,14.4c-6,3.7-11.9,2.6-17.8-0.6
			c-11.7-6.2-25.8-14.5-37.4-3.2c-4,3.9-6.2,9.2-8.4,14.2c-2,4.8-4,10.5-8.6,13.4C68.2,174,74.1,184.3,80.6,180.2L80.6,180.2z"/>
	</g>
</g>
<g>
	<g>
		<path class="st4" d="M505.7,508.9c-1,14.7,3.1,30.7,19.8,33.7c15.5,2.8,29.1-8.1,37.1-20.4c7.9-12.2,10.8-27,11.9-41.3
			c1.3-16.5,1-33.7-1.3-50.1c-2.5-18.1-9.2-35.9-22.5-48.8c-4.7-4.5-10.7,0.2-9.9,5.8c3.3,24.4,2.8,49.5-1.2,73.7
			c-2,11.9-4.7,23.8-8.3,35.3c-1.3,4.2-2.8,9.8-6.8,12.4c-1.8,1.2-6,1.8-6.8-0.8c-2.2-7.3-13.7-4.2-11.5,3.2
			c3.4,11.5,18.2,13.4,26.6,6.2c4.9-4.2,7.5-10.3,9.4-16.3c2.3-7.2,4.2-14.7,5.9-22.1c6.9-31.1,8.3-63.1,4-94.7
			c-3.3,1.9-6.6,3.9-10,5.8c12.4,12.1,17.9,28.9,19.7,45.8c1.8,16.4,2.1,33.7,0.1,50c-1.7,14.2-6.3,29.5-17.7,39
			c-5.6,4.7-13.9,8.1-20.9,4.1c-7-4.1-6.3-13.6-5.8-20.6C518.1,501.3,506.2,501.3,505.7,508.9L505.7,508.9z"/>
	</g>
</g>
<g>
	<g>
		<path class="st4" d="M122.2,514.3c1.1,2.3-1.4,4.1-3.3,4.4c-2.4,0.4-4.6,3.3-4.4,5.7c0.7,7.9,1,15.8,0.8,23.7
			c-0.1,4.9,6.8,8.2,10.2,4.2c3.5-4.1,7-8.2,10.5-12.3c-3.4-1.4-6.8-2.8-10.2-4.2c0.5,12.4-0.9,24.4-4.4,36.3
			c-1.3,4.6,3,8.3,7.3,7.3c2.3-0.5,4.6-1,7-1.5c0.3-0.1,3.5-0.6,3.5-0.8c-0.8-0.3-1.6-0.7-2.4-1c0.2,0.9,0.5,1.9,0.7,2.8
			c1.4,5.3,2.8,10.6,4.1,15.9c1.2,4.7,8.6,6.1,10.9,1.4c1.7-3.6,2.6-8,5-11.2c1.7-2.3,4.3-3.8,6.8-5c5.8-2.8,12.4-4.1,18.4-6.5
			c6.2-2.4,11.8-5.7,15.9-11.1c2.1-2.8,3.6-6,5.3-9.1c1.4-2.6,2.9-6.2,5.8-7.4c-2.5-1.9-5-3.8-7.5-5.7c0.8,9.5-3.2,18.5-11.4,23.7
			c-2.5,1.6-4.2,5.5-2.1,8.1c2,2.6,4,5.2,6,7.8c0.6,0.7,1.1,1.4,1.6,2.1c0.7,1.1,0.7,0.6,0.2-1.5c-0.2-0.1-2.7,1.6-3,1.7
			c-5.2,2.9-10.5,5.6-15.2,9.4c-8.2,6.6-13.4,16.8-10.6,27.3c0.8,2.9,4.3,5.3,7.3,4.2c3.5-1.3,7.1-2.6,10.6-3.9
			c0.9-0.3,1.8-0.6,2.7-1c1.6-0.3,1.3-0.9-0.9-1.9c-0.1,0,0.8,2.4,0.8,2.4c1.9,5,6.1,8.6,11.7,7.4c2.4-0.5,4.4-1.8,6.5-3
			c2.5-1.4,2.9-1.4,5.5-0.3c2.8,1.1,5.5,1.8,8.5,1.1c4-0.9,3.3-1.6,6.2,1.7c7.8,8.8,21.8,14.3,31.8,5.4c3.7-3.3,5.5-8.2,6.6-12.9
			c0.9-3.5,1-8.4,4.6-10.2c-2.7-0.7-5.4-1.4-8.1-2.1c5.5,8.6,11,17.2,16.5,25.9c2,3.2,6.6,4,9.3,1.2c7.4-7.5,15.6-14.1,24.7-19.5
			c8.3-4.9,20.4-12.5,30.4-10.2c4.3,1,8.6-2.8,7.3-7.3c-3.8-13.1-8.5-26.9-20.2-35c-11.3-7.8-26.9-6.3-37.5-14.8
			c-5.9-4.8-14.4,3.6-8.4,8.4c10.4,8.4,23.2,8.5,34.9,13.8c12.3,5.5,16.3,18.8,19.8,30.7c2.4-2.4,4.9-4.9,7.3-7.3
			c-12.8-2.9-25.7,3.7-36.7,9.8c-11,6.2-21.1,14-30,23c3.1,0.4,6.2,0.8,9.3,1.2c-5.5-8.6-10.9-17.3-16.5-25.9
			c-1.8-2.9-5.1-3.6-8.1-2.1c-4.2,2-6.7,5.8-8.2,10.1c-1.4,3.9-1.5,8.6-3.5,12.3c-2.9,5.4-9.4,3.7-13.4,0.5
			c-4.6-3.6-7.2-9.7-13.9-10c-2.5-0.1-4.8,1.6-7.1,1.6c-2.3,0-4.8-2-7.2-2.2c-2.7-0.2-5.3,0.5-7.7,1.7c-1,0.5-2.4,1.1-3.2,1.8
			c-0.3,0.2-0.7,0.4-1,0.6c-1.2,0.4-0.8,0.7,1.2,0.9c0.6-3.6-4.4-8.4-7.3-9.1c-3.3-0.8-6.5,0.6-9.6,1.7c-3.5,1.3-7.1,2.6-10.6,3.9
			c2.4,1.4,4.9,2.8,7.3,4.2c-3.2-12,12.1-18.7,20.3-23.3c4.1-2.3,8.9-5.2,9-10.6c0.1-5.9-6.2-11.6-9.6-15.9
			c-0.7,2.7-1.4,5.4-2.1,8.1c11.5-7.3,18.4-20.3,17.3-34c-0.3-3.4-3.7-7.3-7.5-5.7c-7.8,3.2-11,9.4-14.8,16.4
			c-3.6,6.8-8.5,10-15.6,12.5c-6.7,2.3-13.7,3.9-19.8,7.5c-2.8,1.7-5.4,3.7-7.5,6.3c-3.3,3.9-4.4,8.7-6.5,13.2
			c3.6,0.5,7.3,0.9,10.9,1.4c-1.1-4.4-2.3-8.7-3.4-13.1c-0.9-3.3-1.3-7.1-3.4-9.9c-4.8-6.3-14.4-2.1-20.7-0.7
			c2.4,2.4,4.9,4.9,7.3,7.3c3.7-12.8,5.4-26.1,4.8-39.5c-0.2-4.7-6.6-8.4-10.2-4.2c-3.5,4.1-7,8.2-10.5,12.3
			c3.4,1.4,6.8,2.8,10.2,4.2c0.1-7.9-0.1-15.8-0.8-23.7c-1.5,1.9-2.9,3.8-4.4,5.7c10.1-1.8,14.5-13.2,10.4-21.9
			C129.2,501.4,118.9,507.4,122.2,514.3L122.2,514.3z"/>
	</g>
</g>
<g>
	<g>
		<path class="st4" d="M198.3,408.5c13.1,7.4,25.2,15.5,36.1,25.9c10.5,10,19.9,21.1,29,32.5c20.1,25,39,51.1,56.4,78
			c9.5,14.7,18.2,29.8,25.4,45.7c3.1,7,13.4,0.9,10.3-6c-13.3-29.4-31.7-56.2-50.4-82.3c-18.2-25.3-37-51.2-59.1-73.3
			c-12.5-12.4-26.3-22.2-41.6-30.8C197.6,394.4,191.6,404.7,198.3,408.5L198.3,408.5z"/>
	</g>
</g>
<g>
	<g>
		<path class="st4" d="M199.4,443.9c6.4,12.1,15.4,22.2,26.5,30.2c3,2.2,8.1,0,8.7-3.6c1.1-5.5,2.1-10.9,3.2-16.4
			c0.9-4.6,2-9.2-1.7-12.8c-3.2-3.2-8.8-4.5-13-6c-5.1-1.8-10.3-3.3-15.5-4.7c-7.4-1.9-10.6,9.6-3.2,11.5c3.5,0.9,7,1.9,10.4,2.9
			c3.2,1,6.8,3.1,10.2,3.6c0.6,0.2,1.1,0.4,1.7,0.7c0.3-1.9,0.2-1.7-0.2,0.6c-0.4,1.9-0.7,3.9-1.1,5.8c-0.7,3.9-1.5,7.7-2.2,11.6
			c2.9-1.2,5.8-2.4,8.7-3.6c-9.4-6.8-16.8-15.7-22.2-25.9C206.1,431.1,195.8,437.1,199.4,443.9L199.4,443.9z"/>
	</g>
</g>
<g>
	<g>
		<path class="st4" d="M213.1,440c5.1-4.1,0.6-9.7-2.6-13.1c-4.7-5-9.4-10-14.2-15c0,2.8,0,5.6,0,8.4c-1.7,0.2-2,0.4-0.8,0.6
			c0.5,0.1,0.9,0.3,1.4,0.4c1.1,0.4,2.2,0.9,3.2,1.4c2.1,1.1,4.1,2.5,5.9,4.1c3.6,3.3,6.1,7.4,7.6,12c2.3,7.3,13.8,4.2,11.5-3.2
			c-2.6-8.3-7.6-15.4-14.6-20.5c-5.4-4-17.1-10.4-22.5-3.4c-2,2.6-2.4,5.8,0,8.4c2.8,2.9,5.6,5.9,8.4,8.8c1.3,1.4,2.6,2.7,3.9,4.1
			c0.7,0.8,3.7,5.2,3.3,2.1c0.6-1.4,1.2-2.8,1.7-4.2c-0.2,0.1-0.3,0.3-0.5,0.4C198.8,436.5,207.2,444.8,213.1,440L213.1,440z"/>
	</g>
</g>
<g>
	<g>
		<path class="st4" d="M204.5,436.3c-10.9,3.4-16.9-7.7-18.5-16.7c-2.9,2.2-5.8,4.5-8.7,6.7c8.4,4.4,16.8,9,25,13.8
			c6.6,3.9,12.6-6.4,6-10.3c-8.2-4.8-16.6-9.4-25-13.8c-4.9-2.6-9.6,1.6-8.7,6.7c2.7,15.5,16.1,30.3,33.1,25
			C215,445.5,211.9,434,204.5,436.3L204.5,436.3z"/>
	</g>
</g>
<g>
	<g>
		<path class="st4" d="M210,417.4c0.4-11.4-14.3-16.9-22.4-21.7c0,3.4,0,6.9,0,10.3c2.7-1.5,6.1-2,9.1-0.7c3,1.3,6.4,0.9,8.1-2.1
			c1.5-2.5,0.8-6.9-2.1-8.1c-7-3-14.3-3-21.1,0.7c-4,2.2-3.8,8,0,10.3c3.5,2.1,7.1,4.2,10.6,6.3c1.7,1,5.9,2.8,5.8,5.1
			C197.8,425,209.7,425,210,417.4L210,417.4z"/>
	</g>
</g>
<g>
	<g>
		<path class="st4" d="M251.3,483c-2.6,0.5-5.7-5-6.7-6.7c-2.2-3.6-3.8-7.2-3.8-11.4c-2.5,1.9-5,3.8-7.5,5.7
			c9.9,3.3,15.5,13.4,19.2,22.6c2.8,7,14.4,3.9,11.5-3.2c-5.4-13.3-13.2-26.1-27.5-30.9c-3.7-1.2-7.6,2-7.5,5.7
			c0.1,12.7,10.5,32.6,25.6,29.6C262,493,258.8,481.5,251.3,483L251.3,483z"/>
	</g>
</g>
<g>
	<g>
		<path class="st4" d="M253.3,503.2c13.7,12.8,23.3,28.8,28,46.9c1.9,7.4,13.4,4.3,11.5-3.2c-5.2-20-16-38.1-31.1-52.2
			C256.2,489.5,247.7,497.9,253.3,503.2L253.3,503.2z"/>
	</g>
</g>
<g>
	<g>
		<path class="st4" d="M230.2,509.3c-6.9-0.4-13.2-3.6-19.8-5.5c-6.3-1.8-12.8-2.4-19.1-0.6c-11.6,3.2-20.6,12.5-32.5,14.8
			c-7,1.3-4.7,11.2,1.6,11.7c18.1,1.4,38.7,0.2,54.9,9.7c3.8,2.2,7.1,5,10.4,7.9c2.8,2.4,5.6,4.2,9.4,3.6c4-0.7,6.8-4.1,10.4-5.8
			c3.9-1.8,8-2.4,12.3-2.2c4.2,0.2,6.3-3.9,5.7-7.5c-3-18.6-23-21.6-37.3-27.8c-7-3-13,7.3-6,10.3c10.7,4.6,29.5,6.7,31.8,20.7
			c1.9-2.5,3.8-5,5.7-7.5c-7.3-0.3-18.3,1.4-23.6,7.2c-1.5,0.9-1.5,1.1-0.1,0.7c-0.8-0.7-1.6-1.5-2.4-2.2c-1.6-1.4-3.3-2.7-5-4
			c-3.3-2.4-6.8-4.5-10.4-6.2c-17.1-8-37.4-7.3-55.9-8.7c0.5,3.9,1.1,7.8,1.6,11.7c11.6-2.3,20.1-10.9,31.1-14.4
			c12.4-4,24.7,5.4,37.1,6.1C237.9,521.7,237.8,509.8,230.2,509.3L230.2,509.3z"/>
	</g>
</g>
<g>
	<g>
		<path class="st4" d="M37,373.8c-1.6,10,2.9,17.7,8.1,25.8c2.3,3.6,4.9,7.3,6,11.4c0.7,2.7,0.9,5.5,2.1,8.1
			c1.3,2.8,3.5,5.1,5.7,7.3c3.9,4,7.9,7.8,12.1,11.4c4.2,3.6,8.6,7.8,14.5,7.6c10.1-0.3,20.6-9.7,27.7-16c8-7.1,17.9-15.3,21.7-25.5
			c1.9-5,2.2-10.4,4.8-15.1c2.6-4.7,6-8.9,7.7-14c7.7-22.6-21.3-33.4-37.5-38.8c-6.2-2-13.3-4.8-19.9-4.4
			c-6.4,0.3-11.1,4.7-15.9,8.5c-11.9,9.3-23.7,18.7-35.6,28c-6,4.7,2.5,13.1,8.4,8.4c8.3-6.5,16.5-13,24.8-19.5
			c4.1-3.3,8.2-6.5,12.4-9.8c1.4-1.1,2.9-2.5,4.6-3.2c2.5-1.1,5-0.3,7.6,0.4c9.3,2.4,18.6,5.5,27.2,9.7c5.5,2.7,14.1,7.4,13.2,14.8
			c-0.4,3.5-2.8,6.6-4.6,9.5c-2.3,3.6-4.4,7.3-5.8,11.4c-1.3,4.2-1.6,8.7-3.8,12.5c-2.3,4.1-6.1,7.4-9.4,10.6
			c-6.3,6.3-12.8,12.5-20.5,17c-3.7,2.2-6.8,4.6-10.6,1.7c-3.9-3.1-7.5-6.5-11.1-10c-1.7-1.6-3.4-3.3-4.9-5
			c-2.2-2.4-2.5-4.5-3.2-7.5c-0.9-3.8-2.6-7.5-4.5-10.8c-3.6-6.1-11.2-13.7-9.9-21.3C49.7,369.5,38.2,366.3,37,373.8L37,373.8z"/>
	</g>
</g>
<g>
	<g>
		<path class="st4" d="M60.2,360.5c-1.7-24.7-1.7-55.2,27.1-63.2c7.4-2,4.2-13.5-3.2-11.5c-14.4,4-25.5,13.3-31.4,27.1
			c-6.4,15.1-5.6,31.6-4.5,47.5C48.8,368.1,60.8,368.1,60.2,360.5L60.2,360.5z"/>
	</g>
</g>
<g>
	<g>
		<path class="st4" d="M58.4,475.5c6,0.2,10.7-2.9,14.9-6.8c4.9-4.6,9.7-8.6,15-12.6c11-8.3,20.3-18.2,27.9-29.7
			c4.3-6.4-6-12.4-10.3-6c-6.4,9.7-14.4,18.4-23.7,25.4c-4.3,3.3-8.8,6.2-12.8,9.9c-3.1,2.9-6.5,8.1-11.2,7.9
			C50.8,463.3,50.8,475.2,58.4,475.5L58.4,475.5z"/>
	</g>
</g>
<g>
	<g>
		<path class="st4" d="M245.6,375.2c7.7,0,7.7-11.9,0-11.9C237.9,363.3,237.9,375.2,245.6,375.2L245.6,375.2z"/>
	</g>
</g>
<g>
	<g>
		<path class="st4" d="M236.6,374.5c19.6,23.4,39.8,50.7,37.9,82.9c-0.5,8.2-5.1,16.3-3.3,24.5c2.1,9.7,12.7,13,21.2,15.1
			c17.1,4.2,35.2,3,52.1-1.4c16.6-4.2,33.3-11.8,42.2-27.2c7.7-13.3-12.9-25.3-20.6-12c-5.4,9.3-16.6,13.2-27.1,16
			c-13.4,3.5-27.7,4.9-41.2,1.4c-1.7-0.4-3.4-1.2-5.1-1.5c-0.2,0-1.6-0.6-1.6-0.6c0.7-0.4,2.6,6.9,3.3,6.6c1.6-0.8,2.3-9,2.6-10.8
			c1.3-8,1.7-16,0.7-24.1c-1.8-15.6-6.9-30.3-14.4-44.2c-8.2-15-19-28.5-30-41.6c-4.1-4.9-12.6-4.3-16.8,0
			C231.7,362.5,232.4,369.5,236.6,374.5L236.6,374.5z"/>
	</g>
</g>
<g>
	<g>
		<path class="st4" d="M368.6,516.4c-6.2,9.8-11.9,19.9-13.3,31.6c-1.2,10.5,1,21,5.3,30.6c9.2,20.5,29.1,33.8,50.3,39.4
			c10.5,2.8,23.1,5.1,33.8,2.2c9.8-2.6,18.2-11,17.5-21.7c-0.7-10.8-10-17.1-15.3-25.6c-5.7-9-6.5-20.2-8.5-30.4
			c-2.1-11-5.7-24.9-19.1-25.8c-7.2-0.5-14.3,0.6-21.6-0.5c-7.3-1.1-14.4-3.2-21.1-6.1c-6.9-3.1-13,7.2-6,10.3
			c9.4,4.2,19,6.9,29.2,8c5.1,0.6,10.2,0.5,15.4,0.3c5.7-0.3,7.6,1.5,9.4,6.9c2.8,8.7,3.5,17.9,5.6,26.7c2.1,9.1,6,16.7,12,23.8
			c4.5,5.3,12.5,13,5.4,19.6c-6.7,6.2-18.9,3.9-27,2.3c-17.8-3.5-35.6-12.2-45.5-27.9c-5.2-8.2-8.3-17.8-8-27.6
			c0.3-11.3,6.1-20.8,12-30.2C383,515.9,372.7,510,368.6,516.4L368.6,516.4z"/>
	</g>
</g>
<g>
	<g>
		<path class="st4" d="M444.1,536.1c-0.4,1.5-6.7,3.4-8.1,4.5c-3.1,2.5-5.1,6-4.4,10.1c1.3,7.7,13,12.1,19.2,15.1
			c7.6,3.6,17.3,6.2,22.6,13.3c4.8,6.5,0.7,15.6,9.1,20c6.7,3.5,14.9,0.3,19.8-4.9c5.6-6.1,7.5-14.5,6.8-22.6
			c-0.8-9.6-5.3-19.5-4-29.2c1-7.5,4.8-16.5-4.1-21c-6.8-3.5-12.9,6.8-6,10.3c0.4,0.2,0.1,1.1,0,2.2c-0.3,1.7-1,3.4-1.3,5.1
			c-0.6,3.6-0.7,7.1-0.4,10.7c0.7,7.4,3.2,14.5,3.9,21.9c0.5,5.3-0.1,11.9-4.7,15.4c-1.4,1.1-3.6,2.2-4.7,0.9
			c-0.5-0.5-0.1-3.4-0.2-4.2c-0.2-1.5-0.4-3-0.9-4.5c-4.3-12.9-16.9-17.8-28.3-23c-3.2-1.5-6.3-3-9.3-4.8c-1.3-0.8-3-2.4-4.5-2.7
			c-0.5-0.3-1-0.6-1.5-0.9c-0.5,2.3-0.1,2.7,1.3,1.4c4.9-0.6,10.1-5.3,11.1-10C457.3,531.8,445.8,528.6,444.1,536.1L444.1,536.1z"/>
	</g>
</g>
<g>
	<g>
		<path class="st4" d="M569.2,295.5c8.1,4.3,16,1.4,23.6-2.5c3.1-1.6,7.4-4.3,11-2.8c2.6,1.1,3.9,4.1,4.8,6.6
			c4.6,13,5,33.9-12.3,36.5c-7.2,1.1-15.1,1.3-18.9,8.6c-3.5,6.7-0.4,15,5.1,19.6c6.4,5.3,15.6,6.7,23.4,8.8c3.6,1,8.7,1.2,9.4,5.6
			c0.3,1.9-0.6,8.8-4.1,7.2c-5-2.2-11.6,2.6-8.1,8.1c4,6.3,9.2,15.9,7.7,23.7c-1.5,8-15.9-3.1-19.4-5.2c-7.9-4.8-15.7-9.8-23.3-15
			c-2-1.4-4-2.8-6-4.3c-1.1-0.8-3.6-2.1-4.4-3.2c-1.3-1.9-0.6-1.1,0.7-3.5c0.9-1.8,1.5-3.8,1.9-5.8c1.5-8.1-2.1-16.2-0.4-24.3
			c1.8-8.4,7.7-15.3,12.4-22.2c8.6-12.7,14.4-29.9,2.7-42.7c-5.2-5.7-13.6,2.8-8.4,8.4c10.6,11.7-5.1,28.5-11.3,38.1
			c-4.2,6.6-7.4,13.9-7.8,21.8c-0.3,7.1,3.4,15.5-0.2,22c-1.7,3.2-3.5,5.7-2.6,9.5c0.7,3.3,3.1,5.8,5.7,7.9
			c6.6,5.3,13.8,10,20.9,14.6c7.2,4.7,14.5,9.2,22,13.5c6.2,3.5,13.7,7.2,20.8,3.9c16.5-7.6,6-32.7-0.8-43.4
			c-2.7,2.7-5.4,5.4-8.1,8.1c15.1,6.7,26.3-10.5,20.5-24c-3.2-7.6-11.3-9.1-18.6-11.1c-4.2-1.1-19.6-3.1-19.4-9.7
			c0.1-3.1,4.1-3,6.5-3.2c3.7-0.4,7.1-0.8,10.6-2.2c6.4-2.5,11.9-7.4,15-13.5c3.5-7.1,3.6-14.9,2.8-22.6c-0.7-6.5-1.6-13.2-4.8-19
			c-3.6-6.5-10.1-10.7-17.7-10.1c-4.5,0.4-8.6,2.3-12.5,4.3c-3.4,1.8-8.4,5-12.3,2.9C568.4,281.6,562.4,291.9,569.2,295.5
			L569.2,295.5z"/>
	</g>
</g>
</svg>
