<svg id="Layer_1" data-name="Layer 1" xmlns="http://www.w3.org/2000/svg" viewBox="0 0 643.97 643.4"><defs><style>.cls-1{fill:#bcc8b8;stroke:#485b4a;stroke-miterlimit:10;stroke-width:2px;}</style></defs><title>noodles</title><circle class="cls-1" cx="348.04" cy="328.65" r="31.86"/><circle class="cls-1" cx="348.04" cy="332.01" r="24.66"/><circle class="cls-1" cx="348.04" cy="332.01" r="17.8"/><circle class="cls-1" cx="313.69" cy="355.42" r="31.86"/><circle class="cls-1" cx="373.41" cy="360.51" r="31.86"/><circle class="cls-1" cx="316.17" cy="356.67" r="24.66"/><circle class="cls-1" cx="371.08" cy="363.53" r="24.66"/><circle class="cls-1" cx="371.08" cy="363.53" r="17.8"/><circle class="cls-1" cx="316.17" cy="358.72" r="17.8"/><path class="cls-1" d="M220.73,257.36l179.21-37.78h0a5.7,5.7,0,0,0-2.6-8.76l-1-.39Z"/><path class="cls-1" d="M410.59,369.84a92.82,92.82,0,1,1-185.64,0Z"/><path class="cls-1" d="M227.59,246.27l177.52.69h0a5.8,5.8,0,0,0-.7-9.11l-.88-.6Z"/><rect class="cls-1" x="232.06" y="247.08" width="18.1" height="122.76"/><rect class="cls-1" x="250.16" y="247.08" width="20.49" height="122.76"/><rect class="cls-1" x="270.65" y="247.08" width="16.45" height="122.76"/></svg>